<svg width="589" height="589" xmlns="http://www.w3.org/2000/svg" xmlns:xlink="http://www.w3.org/1999/xlink" overflow="hidden"><defs><clipPath id="clip0"><rect x="-150" y="35" width="589" height="589"/></clipPath></defs><g clip-path="url(#clip0)" transform="translate(150 -35)"><path d="M201.847 91.7742C201.847 92.9198 201.974 93.8109 201.847 94.5747 201.083 100.812 200.447 107.05 199.428 113.287 197.137 127.799 193.573 142.056 188.226 155.804 183.644 167.77 177.915 179.099 169.514 188.901 167.35 191.32 166.968 193.484 167.732 196.539 173.333 219.707 181.48 241.984 192.045 263.242 198.665 276.481 206.175 289.211 215.468 300.667 218.014 303.85 218.014 303.85 221.96 303.341 230.361 302.068 238.763 300.922 247.037 299.522 263.077 296.721 278.861 292.393 294.137 286.41 314.25 278.645 332.453 267.698 349.765 254.841 350.402 254.332 351.166 253.822 352.184 253.186 352.184 254.204 352.184 254.841 352.057 255.477 351.42 258.914 350.784 262.351 350.02 265.788 343.655 294.048 333.599 320.908 319.723 346.367 286.626 407.596 238.254 452.15 173.969 479.137 171.932 480.028 170.15 480.155 168.113 479.391 133.743 467.935 100.519 453.805 68.6951 436.62 42.2174 422.235 17.14 405.814-5.2641 385.574-5.51869 385.319-5.90059 385.192-6.28247 384.938-6.53706 385.319-6.79166 385.447-6.91896 385.829-11.7562 395.121-14.684 405.05-16.0843 415.361-16.2116 416.252-15.8297 417.271-15.3205 418.035-13.5384 420.835-11.6289 423.636-9.71947 426.436 17.7765 466.916 49.2187 503.96 85.7528 536.675 103.447 552.459 122.159 566.844 142.145 579.701 143.8 580.847 145.073 580.847 146.728 579.701 152.838 575.373 159.203 571.427 165.313 567.099 196.373 544.949 223.869 518.981 249.201 490.466 296.937 436.62 333.726 375.772 362.24 309.833 376.752 276.227 387.7 241.347 395.21 205.577 400.302 181.391 403.612 157.077 404.63 132.382 404.63 131.236 404.503 130.472 403.357 130.09 402.848 129.836 402.339 129.581 401.829 129.327 361.349 108.45 318.45 94.702 274.024 85.6639 256.203 81.9723 238.254 79.0445 220.178 77.2624 209.612 76.1167 199.046 75.0983 188.481 74.4619 177.661 73.6981 166.84 73.3162 156.02 73.0616 140.872 72.807 125.596 72.9343 110.448 73.8254 101.919 74.3346 93.3905 74.7164 84.8617 75.6075 71.3683 77.0078 58.0022 78.7899 44.5087 80.4448 42.8539 80.1902 40.9445 80.5721 38.6531 81.0813 39.6715 81.7177 40.308 82.0996 40.9445 82.4815 49.9825 86.6823 59.0205 91.265 68.1859 95.0839 87.6622 103.358 107.648 109.596 128.906 111.123 138.581 111.887 148.255 111.378 157.93 109.723 172.951 107.05 186.826 101.321 199.683 93.0471 200.319 92.6652 200.956 92.2833 201.847 91.7742Z" fill="#003349"/><path d="M144.436 620.181C131.961 613.053 119.868 605.542 108.284 597.395 77.4785 575.882 49.7279 550.932 24.2686 523.436-19.5213 476.082-55.2915 423.381-84.3151 365.97-103.41 328.036-119.067 288.829-130.524 247.967-136.507 226.454-141.344 204.813-144.654 182.791-146.436 171.207-147.963 159.496-148.472 147.785-149.236 136.328-149.491 124.998-150 113.669-150.127 111.632-149.364 110.487-147.581 109.468-113.593 89.7374-77.5684 74.971-39.8887 64.0236-17.7391 57.6587 4.66501 52.5669 27.3238 48.6207 41.4536 46.2021 55.7108 44.1653 69.968 42.7651 79.7698 41.874 89.4443 40.9829 99.2462 40.3464 121.141 38.6916 143.163 38.5643 165.058 39.0735 175.115 39.3281 185.298 39.8373 195.355 40.601 211.394 41.7467 227.306 43.4016 243.218 45.6929 270.969 49.6391 298.338 55.2401 325.197 62.8779 364.277 73.9527 401.702 89.1009 436.836 109.596 437.982 110.232 438.873 110.869 438.873 112.523 438.745 125.635 438.491 138.619 437.345 151.603 433.781 193.357 424.616 233.837 411.631 273.681 398.52 313.906 380.953 352.222 360.713 389.266 335.635 435.22 305.721 477.737 270.714 516.817 242.836 547.877 212.158 575.755 177.788 599.432 167.35 606.688 156.402 613.18 145.455 619.672 145.073 619.799 144.818 619.927 144.436 620.181ZM201.847 91.7742C201.847 92.9198 201.974 93.8109 201.847 94.5747 201.083 100.812 200.447 107.05 199.428 113.287 197.137 127.799 193.573 142.056 188.226 155.804 183.644 167.77 177.915 179.099 169.514 188.901 167.35 191.32 166.968 193.484 167.732 196.539 173.333 219.707 181.48 241.984 192.045 263.242 198.665 276.481 206.175 289.211 215.468 300.667 218.014 303.85 218.014 303.85 221.96 303.341 230.361 302.068 238.763 300.922 247.037 299.522 263.077 296.721 278.861 292.393 294.137 286.41 314.25 278.645 332.453 267.698 349.765 254.841 350.402 254.332 351.166 253.822 352.184 253.186 352.184 254.204 352.184 254.841 352.057 255.477 351.42 258.914 350.784 262.351 350.02 265.788 343.655 294.048 333.599 320.908 319.723 346.367 286.626 407.596 238.254 452.15 173.969 479.137 171.932 480.028 170.15 480.155 168.113 479.391 133.743 467.935 100.519 453.805 68.6951 436.62 42.2174 422.235 17.14 405.814-5.2641 385.574-5.51869 385.319-5.90059 385.192-6.28247 384.938-6.53706 385.319-6.79166 385.447-6.91896 385.829-11.7562 395.121-14.684 405.05-16.0843 415.361-16.2116 416.252-15.8297 417.271-15.3205 418.035-13.5384 420.835-11.6289 423.636-9.71947 426.436 17.7765 466.916 49.2187 503.96 85.7528 536.675 103.447 552.459 122.159 566.844 142.145 579.701 143.8 580.847 145.073 580.847 146.728 579.701 152.838 575.373 159.203 571.427 165.313 567.099 196.373 544.949 223.869 518.981 249.201 490.466 296.937 436.62 333.726 375.772 362.24 309.833 376.752 276.227 387.7 241.347 395.21 205.577 400.302 181.391 403.612 157.077 404.63 132.382 404.63 131.236 404.503 130.472 403.357 130.09 402.848 129.836 402.339 129.581 401.829 129.327 361.349 108.45 318.45 94.702 274.024 85.6639 256.203 81.9723 238.254 79.0445 220.178 77.2624 209.612 76.1167 199.046 75.0983 188.481 74.4619 177.661 73.6981 166.84 73.3162 156.02 73.0616 140.872 72.807 125.596 72.9343 110.448 73.8254 101.919 74.3346 93.3905 74.7164 84.8617 75.6075 71.3683 77.0078 58.0022 78.7899 44.5087 80.4448 42.8539 80.1902 40.9445 80.5721 38.6531 81.0813 39.6715 81.7177 40.308 82.0996 40.9445 82.4815 49.9825 86.6823 59.0205 91.265 68.1859 95.0839 87.6622 103.358 107.648 109.596 128.906 111.123 138.581 111.887 148.255 111.378 157.93 109.723 172.951 107.05 186.826 101.321 199.683 93.0471 200.319 92.6652 200.956 92.2833 201.847 91.7742ZM-34.415 251.149C-34.1604 251.149-34.0331 251.149-33.7785 251.149-33.7785 251.531-33.6512 251.913-33.6512 252.295-33.3966 257.132-33.3966 262.097-33.0147 266.934-32.1236 278.263-29.4504 289.211-25.1223 299.649-19.6486 312.761-11.7562 324.344-2.46358 334.91 12.812 352.35 29.997 367.498 49.0914 380.482 85.7528 405.56 125.342 424.781 167.222 439.42 168.877 440.057 170.15 439.675 171.678 439.038 202.993 424.145 230.234 403.905 253.147 377.809 265.75 363.424 276.697 347.767 285.863 330.964 286.244 330.327 286.499 329.564 286.754 328.927 286.626 328.8 286.499 328.673 286.372 328.545 265.877 334.528 245 338.22 223.487 340.638 224.124 341.784 224.506 342.548 225.015 343.312 229.598 350.058 234.18 356.805 238.763 363.552 239.145 364.188 239.527 364.825 240.036 365.589 239.527 365.589 239.272 365.589 239.145 365.589 238.508 365.334 237.872 364.952 237.108 364.697 222.214 357.06 209.23 346.876 197.519 335.037 181.734 318.871 169.259 300.413 158.821 280.555 147.746 259.296 139.472 236.892 133.489 213.597 133.234 212.706 132.98 211.815 132.598 210.669 122.796 213.724 112.994 215.761 103.192 216.906 93.2632 218.052 83.3341 218.434 73.2777 217.543 74.0415 216.906 74.8053 216.397 75.569 216.015 99.2462 203.795 120.123 188.01 137.944 168.152 143.927 161.405 149.274 154.149 153.347 146.13 153.729 145.239 154.111 144.475 154.62 143.329 153.729 143.329 153.22 143.329 152.838 143.329 149.146 143.711 145.327 144.093 141.636 144.348 124.196 145.239 106.884 143.711 89.8262 139.765 68.9497 134.928 49.0914 127.29 29.8697 118.124 14.2122 110.741-1.06332 102.467-16.2116 94.1928-17.7391 93.3017-19.1394 93.0471-20.7943 93.5563-39.5068 98.6481-57.8375 104.631-75.7863 111.887-88.6432 117.106-101.246 122.834-113.593 129.199-114.994 130.218-115.757 130.854-115.63 132.636-114.612 143.966-113.975 155.295-112.702 166.497-110.284 187.246-106.083 207.741-100.864 227.981-92.3348 260.951-80.7508 293.03-66.7482 324.09-59.8742 339.365-52.491 354.386-44.4714 369.026-43.9622 369.917-43.3257 370.935-42.6892 371.953-42.3073 371.571-42.0527 371.317-41.9254 371.19-38.743 366.607-35.6879 361.897-32.3782 357.314-31.3598 355.914-31.2326 354.768-31.9963 353.241-38.8703 339.875-42.4346 325.49-43.1984 310.469-44.0895 293.539-41.9254 276.863-37.3428 260.569-36.4517 257.387-35.4333 254.332-34.415 251.149Z" fill="#BBBCBC"/><path d="M-34.415 251.149C-34.1604 251.149-34.0331 251.149-33.7785 251.149-33.7785 251.531-33.6512 251.913-33.6512 252.295-33.3966 257.132-33.3966 262.097-33.0147 266.934-32.1236 278.263-29.4504 289.211-25.1223 299.649-19.6486 312.761-11.7562 324.344-2.46358 334.91 12.812 352.35 29.997 367.498 49.0914 380.482 85.7528 405.56 125.342 424.781 167.222 439.42 168.877 440.057 170.15 439.675 171.678 439.038 202.993 424.145 230.234 403.905 253.147 377.809 265.75 363.424 276.697 347.767 285.863 330.964 286.244 330.327 286.499 329.564 286.754 328.927 286.626 328.8 286.499 328.673 286.372 328.545 265.877 334.528 245 338.22 223.487 340.638 224.124 341.784 224.506 342.548 225.015 343.312 229.598 350.058 234.18 356.805 238.763 363.552 239.145 364.188 239.527 364.825 240.036 365.589 239.527 365.589 239.272 365.589 239.145 365.589 238.508 365.334 237.872 364.952 237.108 364.697 222.214 357.06 209.23 346.876 197.519 335.037 181.734 318.871 169.259 300.413 158.821 280.555 147.746 259.296 139.472 236.892 133.489 213.597 133.234 212.706 132.98 211.815 132.598 210.669 122.796 213.724 112.994 215.761 103.192 216.906 93.2632 218.052 83.3341 218.434 73.2777 217.543 74.0415 216.906 74.8053 216.397 75.569 216.015 99.2462 203.795 120.123 188.01 137.944 168.152 143.927 161.405 149.274 154.149 153.347 146.13 153.729 145.239 154.111 144.475 154.62 143.329 153.729 143.329 153.22 143.329 152.838 143.329 149.146 143.711 145.327 144.093 141.636 144.348 124.196 145.239 106.884 143.711 89.8262 139.765 68.9497 134.928 49.0914 127.29 29.8697 118.124 14.2122 110.741-1.06332 102.467-16.2116 94.1928-17.7391 93.3017-19.1394 93.0471-20.7943 93.5563-39.5068 98.6481-57.8375 104.631-75.7863 111.887-88.6432 117.106-101.246 122.834-113.593 129.199-114.994 130.218-115.757 130.854-115.63 132.636-114.612 143.966-113.975 155.295-112.702 166.497-110.284 187.246-106.083 207.741-100.864 227.981-92.3348 260.951-80.7508 293.03-66.7482 324.09-59.8742 339.365-52.491 354.386-44.4714 369.026-43.9622 369.917-43.3257 370.935-42.6892 371.953-42.3073 371.571-42.0527 371.317-41.9254 371.19-38.743 366.607-35.6879 361.897-32.3782 357.314-31.3598 355.914-31.2326 354.768-31.9963 353.241-38.8703 339.875-42.4346 325.49-43.1984 310.469-44.0895 293.539-41.9254 276.863-37.3428 260.569-36.4517 257.387-35.4333 254.332-34.415 251.149Z" fill="#003349"/></g></svg>